PathFileType	4	(X/Y/Z)	/tmp/tmpfbxcaoho/Subject7/MarkerData/Take_2_10hz_segment_0.trc
DataRate	CameraRate	NumFrames	NumMarkers	Units	OrigDataRate	OrigDataStartFrame	OrigNumFrames
50.0148	50.0148	9	35	m	50.0148	0	2000
Frame#	Time	C7			CLAV			LANK			LASI			LBHD			LELB			LFHD			LFIN			LFRM			LHEE			LKNE			LSHO			LTHI			LTIB			LTOE			LUPA			LWRA			LWRB			RASI			RBAK			RBHD			RELB			RFHD			RFIN			RFRM			RHEE			RKNE			RSHO			RTHI			RTOE			RUPA			RWRA			RWRB			STRN			T10		
		X1	Y1	Z1	X2	Y2	Z2	X3	Y3	Z3	X4	Y4	Z4	X5	Y5	Z5	X6	Y6	Z6	X7	Y7	Z7	X8	Y8	Z8	X9	Y9	Z9	X10	Y10	Z10	X11	Y11	Z11	X12	Y12	Z12	X13	Y13	Z13	X14	Y14	Z14	X15	Y15	Z15	X16	Y16	Z16	X17	Y17	Z17	X18	Y18	Z18	X19	Y19	Z19	X20	Y20	Z20	X21	Y21	Z21	X22	Y22	Z22	X23	Y23	Z23	X24	Y24	Z24	X25	Y25	Z25	X26	Y26	Z26	X27	Y27	Z27	X28	Y28	Z28	X29	Y29	Z29	X30	Y30	Z30	X31	Y31	Z31	X32	Y32	Z32	X33	Y33	Z33	X34	Y34	Z34	X35	Y35	Z35

1	0.02	1.51922	1.41015	-0.911986	1.43291	1.31688	-1.00019	1.46006	0.0646234	-0.821722	1.34048	0.901243	-0.895242	1.47387	1.55463	-0.856132	1.35156	1.03432	-0.71987	1.36491	1.58902	-1.00362	1.30542	0.708961	-0.795101	1.31945	0.895606	-0.736685	1.55484	0.0114454	-0.792699	1.39467	0.456317	-0.812397	1.34873	1.34289	-0.785929	1.3527	0.62735	-0.840939	1.41862	0.256794	-0.78776	1.37875	0.016311	-0.994761	1.35099	1.17128	-0.742451	1.31645	0.798193	-0.844007	1.31672	0.776795	-0.757371	1.5325	0.91153	-1.0868	1.64984	1.27334	-0.91041	1.55322	1.55649	-0.921742	1.86462	1.19621	-1.07462	1.45388	1.59153	-1.05686	1.70434	0.935352	-0.951796	1.82233	1.06774	-1.02331	1.59941	0.0136041	-0.841881	1.59531	0.459596	-1.02853	1.62097	1.37431	-1.09208	1.57164	0.676432	-1.08591	1.4296	0.0173597	-1.04755	1.78083	1.26312	-1.08958	1.68465	1.00586	-1.02142	1.73469	0.984205	-0.958178	1.41089	1.16609	-1.03056	1.58317	1.05732	-0.853278
2	0.0399941	1.51752	1.41008	-0.912284	1.43161	1.31664	-1.00011	1.46057	0.0641759	-0.820996	1.33946	0.90112	-0.894915	1.47162	1.55443	-0.856229	1.34986	1.03414	-0.719922	1.36302	1.58871	-1.00397	1.30378	0.708654	-0.795432	1.3177	0.895429	-0.736744	1.55486	0.0114497	-0.792686	1.39432	0.456007	-0.811924	1.34714	1.34272	-0.786056	1.35197	0.627257	-0.84055	1.41863	0.256496	-0.78744	1.37874	0.0163213	-0.994744	1.34925	1.1711	-0.742593	1.31511	0.798002	-0.843979	1.31505	0.776586	-0.757417	1.53127	0.911455	-1.08674	1.6482	1.27341	-0.909995	1.55111	1.55643	-0.921635	1.86327	1.19664	-1.07401	1.45182	1.59201	-1.05703	1.70261	0.936273	-0.950887	1.82042	1.06837	-1.02244	1.60037	0.0119008	-0.842317	1.59487	0.459185	-1.02854	1.61956	1.37426	-1.09214	1.57003	0.676321	-1.08594	1.42964	0.0172163	-1.04758	1.77962	1.26325	-1.08922	1.68244	1.00677	-1.02088	1.7334	0.983628	-0.959215	1.40964	1.16582	-1.03056	1.58192	1.05736	-0.853069
3	0.0599881	1.51592	1.41005	-0.912717	1.43018	1.31636	-1.0004	1.46072	0.0640312	-0.8207	1.33839	0.900952	-0.89468	1.46944	1.55445	-0.856984	1.3486	1.03409	-0.720049	1.36086	1.58815	-1.00489	1.30288	0.708428	-0.795505	1.3166	0.895305	-0.736795	1.55489	0.0114608	-0.792685	1.39384	0.455899	-0.811528	1.34561	1.34259	-0.786444	1.35145	0.627165	-0.840178	1.41855	0.25638	-0.787134	1.37874	0.0163241	-0.994742	1.34786	1.17097	-0.742814	1.31416	0.797966	-0.843978	1.31413	0.776568	-0.757316	1.52987	0.911357	-1.08686	1.64688	1.27352	-0.91031	1.54901	1.55662	-0.922334	1.86193	1.19689	-1.07411	1.44971	1.59162	-1.05785	1.70125	0.937346	-0.950386	1.81852	1.06892	-1.0221	1.60046	0.011451	-0.843167	1.59432	0.459017	-1.02854	1.61796	1.3741	-1.09245	1.56856	0.676186	-1.08616	1.42963	0.0171224	-1.04759	1.77816	1.26328	-1.08948	1.68033	1.0077	-1.02068	1.73249	0.98333	-0.960233	1.40832	1.16548	-1.03076	1.5807	1.05741	-0.85322
4	0.0799822	1.51464	1.41007	-0.913467	1.42882	1.3161	-1.00102	1.46069	0.0640344	-0.820667	1.33714	0.900748	-0.894772	1.46772	1.5547	-0.8583	1.34767	1.03423	-0.720269	1.359	1.58757	-1.00635	1.30237	0.708402	-0.795323	1.31568	0.895408	-0.736864	1.55487	0.0114666	-0.792714	1.39329	0.455945	-0.811336	1.34441	1.34263	-0.787003	1.35086	0.627081	-0.839997	1.41837	0.256349	-0.787043	1.37874	0.0163091	-0.99475	1.34682	1.17102	-0.743211	1.31321	0.798068	-0.843957	1.31337	0.776724	-0.757188	1.52835	0.911225	-1.08727	1.64593	1.2736	-0.91114	1.54729	1.55687	-0.923678	1.86068	1.19654	-1.07527	1.44811	1.59059	-1.05923	1.70032	0.938208	-0.949979	1.81655	1.06906	-1.02215	1.60025	0.0117919	-0.843404	1.59333	0.459103	-1.02882	1.61652	1.3737	-1.0932	1.5672	0.676085	-1.08657	1.42959	0.0170704	-1.04759	1.77693	1.26306	-1.09046	1.67835	1.00841	-1.02079	1.73183	0.982857	-0.961381	1.40702	1.16521	-1.03112	1.57946	1.05743	-0.853711
5	0.0999763	1.51374	1.41008	-0.914683	1.42759	1.31588	-1.00193	1.46063	0.0640567	-0.820706	1.33583	0.900597	-0.895169	1.46672	1.55495	-0.859837	1.34675	1.03441	-0.720762	1.35793	1.58729	-1.00804	1.30164	0.708539	-0.795352	1.31463	0.895645	-0.737184	1.55487	0.0114986	-0.792732	1.39273	0.456001	-0.811407	1.34345	1.3427	-0.787875	1.35	0.627113	-0.840297	1.41809	0.256349	-0.787117	1.37874	0.0162797	-0.994766	1.34591	1.17115	-0.743905	1.3119	0.79815	-0.844183	1.31224	0.776941	-0.757404	1.52673	0.911078	-1.08795	1.64516	1.27355	-0.912276	1.54631	1.55686	-0.925253	1.85944	1.19553	-1.07711	1.4473	1.58978	-1.06084	1.69997	0.938974	-0.949705	1.81442	1.0687	-1.02224	1.59994	0.0123057	-0.843284	1.59193	0.45917	-1.0294	1.61542	1.37301	-1.09446	1.5658	0.67597	-1.08713	1.42959	0.0170225	-1.0476	1.77577	1.26226	-1.09202	1.67626	1.00874	-1.0211	1.73133	0.982074	-0.962666	1.40591	1.16497	-1.03164	1.57831	1.05748	-0.854518
6	0.11997	1.51295	1.41003	-0.916039	1.42667	1.31566	-1.00298	1.4606	0.0640704	-0.82069	1.33467	0.900557	-0.895674	1.46616	1.55493	-0.861184	1.34578	1.03446	-0.721716	1.3574	1.58732	-1.00954	1.30064	0.708595	-0.795981	1.31341	0.895759	-0.738016	1.55488	0.0115328	-0.792744	1.39247	0.455911	-0.811626	1.34266	1.34272	-0.788995	1.34899	0.627339	-0.841105	1.41776	0.256426	-0.78713	1.37872	0.0162582	-0.994797	1.34502	1.17121	-0.744955	1.31061	0.798142	-0.844891	1.31113	0.777124	-0.758037	1.52509	0.910908	-1.08881	1.6444	1.27341	-0.913478	1.54577	1.55658	-0.926585	1.85824	1.19426	-1.07887	1.44672	1.59002	-1.0623	1.69966	0.939044	-0.950087	1.81242	1.06799	-1.02296	1.59952	0.0125688	-0.84307	1.59129	0.458929	-1.02993	1.61448	1.37227	-1.09594	1.56434	0.675807	-1.08786	1.4296	0.0169672	-1.04761	1.77466	1.26113	-1.09363	1.67416	1.00866	-1.02197	1.73093	0.98073	-0.964651	1.40505	1.16467	-1.03235	1.57728	1.05746	-0.855542
7	0.139964	1.51223	1.40993	-0.917399	1.42607	1.31547	-1.00415	1.46062	0.0640748	-0.820646	1.33382	0.900601	-0.89632	1.46566	1.5547	-0.862322	1.34485	1.03439	-0.723051	1.35692	1.58741	-1.01062	1.29978	0.708544	-0.797049	1.31224	0.895703	-0.739365	1.55488	0.0115554	-0.792764	1.39244	0.455771	-0.811952	1.34192	1.34266	-0.790316	1.34829	0.627384	-0.841922	1.41755	0.256532	-0.78715	1.37868	0.0162391	-0.994828	1.34415	1.17119	-0.746283	1.30974	0.798057	-0.846062	1.31022	0.777156	-0.759149	1.52376	0.910693	-1.08982	1.64362	1.27325	-0.914626	1.54525	1.55635	-0.927673	1.85732	1.19352	-1.08058	1.44601	1.59054	-1.06345	1.69903	0.938573	-0.951951	1.81133	1.06741	-1.02502	1.5991	0.0125847	-0.842824	1.59168	0.458447	-1.03033	1.61368	1.37189	-1.09733	1.56322	0.675613	-1.08872	1.4296	0.0169184	-1.04761	1.77386	1.2605	-1.09523	1.67291	1.00826	-1.02375	1.73089	0.97905	-0.967911	1.40441	1.16437	-1.03333	1.57647	1.05737	-0.856681
8	0.159959	1.51176	1.40987	-0.918787	1.4257	1.31545	-1.0054	1.46065	0.0641216	-0.820681	1.33337	0.900587	-0.897217	1.46516	1.55465	-0.863515	1.3441	1.03435	-0.724445	1.35637	1.58735	-1.01164	1.29909	0.708512	-0.798446	1.31143	0.895683	-0.740833	1.55489	0.0115951	-0.79278	1.39237	0.455753	-0.81249	1.34143	1.34268	-0.79165	1.34803	0.627029	-0.842615	1.41759	0.256555	-0.787454	1.37865	0.0162141	-0.994852	1.34347	1.1712	-0.747655	1.30917	0.798047	-0.847494	1.30948	0.777152	-0.760545	1.52307	0.910519	-1.09095	1.643	1.27322	-0.916155	1.54467	1.55648	-0.9289	1.85658	1.19359	-1.08237	1.4452	1.59064	-1.06459	1.69719	0.93808	-0.953737	1.81098	1.06725	-1.02727	1.59889	0.0129644	-0.842688	1.59098	0.458662	-1.03091	1.61299	1.37211	-1.09879	1.56291	0.675484	-1.0896	1.42957	0.0169102	-1.04761	1.77318	1.26062	-1.09693	1.67251	1.00788	-1.02533	1.7306	0.977505	-0.971004	1.4039	1.16431	-1.0346	1.57599	1.05735	-0.857981
9	0.179953	1.51133	1.40991	-0.919982	1.42525	1.31564	-1.00667	1.46053	0.0642832	-0.820881	1.33316	0.900534	-0.898363	1.46461	1.55507	-0.864834	1.34343	1.03432	-0.725787	1.35563	1.58712	-1.01296	1.29869	0.708422	-0.799903	1.31107	0.895648	-0.742151	1.5549	0.011649	-0.792783	1.39229	0.455815	-0.813156	1.34087	1.34267	-0.792919	1.34791	0.626787	-0.843543	1.41751	0.256708	-0.78784	1.37864	0.0161932	-0.994862	1.34282	1.17112	-0.749033	1.30882	0.798111	-0.848938	1.30888	0.777108	-0.762033	1.523	0.910405	-1.0921	1.64248	1.27319	-0.917998	1.54402	1.55696	-0.930333	1.8555	1.19371	-1.08422	1.44445	1.59028	-1.06594	1.6964	0.934819	-0.954114	1.81279	1.06615	-1.0296	1.5988	0.0133414	-0.842528	1.59065	0.459011	-1.03141	1.61234	1.3728	-1.10019	1.56334	0.675437	-1.09035	1.42955	0.0169351	-1.04763	1.77207	1.26078	-1.09868	1.67489	1.00512	-1.02552	1.73245	0.973911	-0.973252	1.40332	1.16457	-1.03605	1.57569	1.05738	-0.859398
